<svg width="25" height="26" viewBox="0 0 25 26" fill="none" xmlns="http://www.w3.org/2000/svg">
<path d="M12.0997 2.22351C10.1054 2.22351 8.15589 2.81489 6.4977 3.92286C4.8395 5.03083 3.54709 6.60563 2.78391 8.44812C2.02073 10.2906 1.82104 12.318 2.21011 14.274C2.59918 16.23 3.55952 18.0267 4.9697 19.4368C6.37988 20.847 8.17656 21.8074 10.1325 22.1964C12.0885 22.5855 14.1159 22.3858 15.9584 21.6226C17.8009 20.8594 19.3757 19.567 20.4837 17.9088C21.5917 16.2506 22.183 14.3011 22.183 12.3068C22.183 10.9827 21.9222 9.67149 21.4155 8.44812C20.9087 7.22475 20.166 6.11318 19.2297 5.17685C18.2934 4.24053 17.1818 3.49779 15.9584 2.99106C14.7351 2.48432 13.4239 2.22351 12.0997 2.22351ZM12.0997 20.3735C10.5043 20.3735 8.94465 19.9004 7.6181 19.014C6.29154 18.1277 5.25761 16.8678 4.64707 15.3938C4.03652 13.9198 3.87677 12.2979 4.18803 10.7331C4.49928 9.16834 5.26756 7.73099 6.3957 6.60285C7.52384 5.47471 8.96119 4.70643 10.526 4.39518C12.0907 4.08392 13.7127 4.24367 15.1867 4.85422C16.6607 5.46476 17.9205 6.49869 18.8069 7.82524C19.6933 9.1518 20.1664 10.7114 20.1664 12.3068C20.1664 14.4463 19.3165 16.498 17.8037 18.0108C16.2909 19.5236 14.2391 20.3735 12.0997 20.3735Z" fill="#1E1E1E"/>
<path d="M16.133 11.2986H13.108V8.27359C13.108 8.00617 13.0017 7.74969 12.8126 7.56059C12.6235 7.37149 12.3671 7.26526 12.0996 7.26526C11.8322 7.26526 11.5757 7.37149 11.3866 7.56059C11.1975 7.74969 11.0913 8.00617 11.0913 8.27359V12.3069C11.0913 12.5744 11.1975 12.8308 11.3866 13.0199C11.5757 13.209 11.8322 13.3153 12.0996 13.3153H16.133C16.4004 13.3153 16.6569 13.209 16.846 13.0199C17.0351 12.8308 17.1413 12.5744 17.1413 12.3069C17.1413 12.0395 17.0351 11.783 16.846 11.5939C16.6569 11.4048 16.4004 11.2986 16.133 11.2986Z" fill="#1E1E1E"/>
<path d="M5.17962 15.6567C5.95048 14.3215 7.87763 14.3215 8.64849 15.6567L12.3652 22.0941C13.136 23.4293 12.1724 25.0982 10.6307 25.0982H3.1974C1.65567 25.0982 0.692095 23.4293 1.46296 22.0941L5.17962 15.6567Z" fill="#ACACAC"/>
<path d="M6.94227 17.6309L6.88098 21.0699H6.22805L6.16677 17.6309H6.94227ZM6.5557 22.5031C6.42527 22.5031 6.3137 22.4575 6.22098 22.3664C6.12827 22.2736 6.0827 22.1621 6.08427 22.0316C6.0827 21.9028 6.12827 21.7928 6.22098 21.7016C6.3137 21.6089 6.42527 21.5626 6.5557 21.5626C6.68298 21.5626 6.79298 21.6089 6.8857 21.7016C6.97841 21.7928 7.02555 21.9028 7.02712 22.0316C7.02555 22.1181 7.00277 22.1974 6.95877 22.2697C6.91634 22.3404 6.85977 22.397 6.78905 22.4394C6.71834 22.4819 6.64055 22.5031 6.5557 22.5031Z" fill="black"/>
</svg>
