<svg width="25" height="26" viewBox="0 0 25 26" fill="none" xmlns="http://www.w3.org/2000/svg">
<path d="M12.0997 2.22345C10.1054 2.22345 8.15589 2.81483 6.4977 3.9228C4.8395 5.03077 3.54709 6.60557 2.78391 8.44806C2.02073 10.2905 1.82104 12.318 2.21011 14.2739C2.59918 16.2299 3.55952 18.0266 4.9697 19.4368C6.37988 20.847 8.17656 21.8073 10.1325 22.1964C12.0885 22.5854 14.1159 22.3858 15.9584 21.6226C17.8009 20.8594 19.3757 19.567 20.4837 17.9088C21.5917 16.2506 22.183 14.3011 22.183 12.3068C22.183 10.9826 21.9222 9.67143 21.4155 8.44806C20.9087 7.22469 20.166 6.11311 19.2297 5.17679C18.2934 4.24047 17.1818 3.49773 15.9584 2.991C14.7351 2.48426 13.4239 2.22345 12.0997 2.22345ZM12.0997 20.3735C10.5043 20.3735 8.94465 19.9003 7.6181 19.014C6.29154 18.1276 5.25761 16.8678 4.64707 15.3938C4.03652 13.9198 3.87677 12.2978 4.18803 10.7331C4.49928 9.16828 5.26756 7.73093 6.3957 6.60279C7.52384 5.47465 8.96119 4.70637 10.526 4.39512C12.0907 4.08386 13.7127 4.24361 15.1867 4.85416C16.6607 5.4647 17.9205 6.49863 18.8069 7.82518C19.6933 9.15174 20.1664 10.7113 20.1664 12.3068C20.1664 14.4462 19.3165 16.498 17.8037 18.0108C16.2909 19.5236 14.2391 20.3735 12.0997 20.3735Z" fill="#1E1E1E"/>
<path d="M16.133 11.2985H13.108V8.27347C13.108 8.00604 13.0017 7.74957 12.8126 7.56047C12.6235 7.37137 12.3671 7.26514 12.0996 7.26514C11.8322 7.26514 11.5757 7.37137 11.3866 7.56047C11.1975 7.74957 11.0913 8.00604 11.0913 8.27347V12.3068C11.0913 12.5742 11.1975 12.8307 11.3866 13.0198C11.5757 13.2089 11.8322 13.3151 12.0996 13.3151H16.133C16.4004 13.3151 16.6569 13.2089 16.846 13.0198C17.0351 12.8307 17.1413 12.5742 17.1413 12.3068C17.1413 12.0394 17.0351 11.7829 16.846 11.5938C16.6569 11.4047 16.4004 11.2985 16.133 11.2985Z" fill="#1E1E1E"/>
<path d="M5.17962 15.6567C5.95048 14.3215 7.87763 14.3215 8.64849 15.6567L12.3652 22.0941C13.136 23.4293 12.1724 25.0982 10.6307 25.0982H3.1974C1.65567 25.0982 0.692095 23.4293 1.46296 22.0941L5.17962 15.6567Z" fill="#FFC700"/>
<path d="M6.94227 17.6308L6.88098 21.0699H6.22805L6.16677 17.6308H6.94227ZM6.5557 22.503C6.42527 22.503 6.3137 22.4574 6.22098 22.3663C6.12827 22.2736 6.0827 22.162 6.08427 22.0316C6.0827 21.9027 6.12827 21.7927 6.22098 21.7016C6.3137 21.6089 6.42527 21.5625 6.5557 21.5625C6.68298 21.5625 6.79298 21.6089 6.8857 21.7016C6.97841 21.7927 7.02555 21.9027 7.02712 22.0316C7.02555 22.118 7.00277 22.1974 6.95877 22.2697C6.91634 22.3404 6.85977 22.3969 6.78905 22.4394C6.71834 22.4818 6.64055 22.503 6.5557 22.503Z" fill="black"/>
</svg>
