<svg width="25" height="25" viewBox="0 0 25 25" fill="none" xmlns="http://www.w3.org/2000/svg">
<path d="M3.75 11.25C5.12891 11.25 6.25 10.1289 6.25 8.75C6.25 7.37109 5.12891 6.25 3.75 6.25C2.37109 6.25 1.25 7.37109 1.25 8.75C1.25 10.1289 2.37109 11.25 3.75 11.25ZM21.25 11.25C22.6289 11.25 23.75 10.1289 23.75 8.75C23.75 7.37109 22.6289 6.25 21.25 6.25C19.8711 6.25 18.75 7.37109 18.75 8.75C18.75 10.1289 19.8711 11.25 21.25 11.25ZM22.5 12.5H20C19.3125 12.5 18.6914 12.7773 18.2383 13.2266C19.8125 14.0898 20.9297 15.6484 21.1719 17.5H23.75C24.4414 17.5 25 16.9414 25 16.25V15C25 13.6211 23.8789 12.5 22.5 12.5ZM12.5 12.5C14.918 12.5 16.875 10.543 16.875 8.125C16.875 5.70703 14.918 3.75 12.5 3.75C10.082 3.75 8.125 5.70703 8.125 8.125C8.125 10.543 10.082 12.5 12.5 12.5ZM15.5 13.75H15.1758C14.3633 14.1406 13.4609 14.375 12.5 14.375C11.5391 14.375 10.6406 14.1406 9.82422 13.75H9.5C7.01562 13.75 5 15.7656 5 18.25V19.375C5 20.4102 5.83984 21.25 6.875 21.25H18.125C19.1602 21.25 20 20.4102 20 19.375V18.25C20 15.7656 17.9844 13.75 15.5 13.75ZM6.76172 13.2266C6.30859 12.7773 5.6875 12.5 5 12.5H2.5C1.12109 12.5 0 13.6211 0 15V16.25C0 16.9414 0.558594 17.5 1.25 17.5H3.82422C4.07031 15.6484 5.1875 14.0898 6.76172 13.2266Z" fill="black"/>
</svg>
